<?xml version="1.0" encoding="utf-8"?>
<!-- Generator: Adobe Illustrator 16.0.4, SVG Export Plug-In . SVG Version: 6.00 Build 0)  -->
<!DOCTYPE svg PUBLIC "-//W3C//DTD SVG 1.1//EN" "http://www.w3.org/Graphics/SVG/1.1/DTD/svg11.dtd">
<svg version="1.1" id="Capa_1" xmlns="http://www.w3.org/2000/svg" xmlns:xlink="http://www.w3.org/1999/xlink" x="0px" y="0px"
	 width="1200px" height="1200px" viewBox="0 0 1200 1200" enable-background="new 0 0 1200 1200" xml:space="preserve">
<g>
	<g>
		<path fill="#003347" d="M637.5,412.49h-75c-62.025,0-112.5,50.476-112.5,112.5v150c0,62.025,50.475,112.5,112.5,112.5h75
			c62.025,0,112.5-50.475,112.5-112.5v-150C750,462.966,699.525,412.49,637.5,412.49z"/>
	</g>
</g>
<g>
	<g>
		<path fill="#003347" d="M375,524.99c0-35.925,10.65-69.225,28.275-97.8l-243.75-112.65c-35.1-15.9-75.45-12.9-107.925,8.025
			C19.275,343.416,0,378.666,0,416.99v366c0,38.325,19.275,73.575,51.6,94.426c18.6,12,39.75,18.074,61.05,18.074
			c15.9,0,31.95-3.375,46.95-10.274l243.525-112.5C385.65,744.216,375,710.916,375,674.99V524.99z"/>
	</g>
</g>
<g>
	<g>
		<path fill="#003347" d="M1148.4,322.565c-32.625-20.925-72.9-23.85-108.15-7.875l-243.525,112.5
			C814.35,455.766,825,489.065,825,524.99v150c0,35.926-10.65,69.226-28.275,97.801l243.75,112.574
			c14.926,6.825,30.9,10.2,46.726,10.2c21.3,0,42.524-6.075,61.125-18.075c32.325-20.85,51.675-56.175,51.675-94.5v-366
			C1200,378.666,1180.725,343.416,1148.4,322.565z"/>
	</g>
</g>
</svg>
